<svg width="26" height="27" fill="none" xmlns="http://www.w3.org/2000/svg"><path fill-rule="evenodd" clip-rule="evenodd" d="M13 2.798c-6.075 0-11 4.933-11 11.018C2 19.9 6.925 24.834 13 24.834S24 19.9 24 13.816C24 7.73 19.075 2.798 13 2.798zM0 13.816C0 6.624 5.82.794 13 .794s13 5.83 13 13.022c0 7.191-5.82 13.02-13 13.02S0 21.008 0 13.817z" fill="#E48227"/><path fill-rule="evenodd" clip-rule="evenodd" d="M16.002 7.806H18a1 1 0 010 2.003h-2.004a1.985 1.985 0 00-1.846 1.233c-.1.243-.151.503-.15.766v14.027a1 1 0 11-2 0v-14.02" fill="#E48227"/><path fill-rule="evenodd" clip-rule="evenodd" d="M8 15.819a1 1 0 011-1.002h8a1 1 0 010 2.004H9a1 1 0 01-1-1.002z" fill="#E48227"/></svg>