<svg width="21" height="21" fill="none" xmlns="http://www.w3.org/2000/svg"><path d="M20 15.225v2.86a1.903 1.903 0 01-1.3 1.814c-.251.086-.518.117-.783.093a18.93 18.93 0 01-8.245-2.927 18.61 18.61 0 01-5.731-5.72 18.844 18.844 0 01-2.933-8.266 1.903 1.903 0 011.13-1.916c.243-.107.506-.163.77-.163h2.867a1.913 1.913 0 011.91 1.64c.121.915.346 1.814.67 2.68a1.903 1.903 0 01-.43 2.01L6.71 8.543a15.27 15.27 0 005.732 5.72l1.213-1.21a1.913 1.913 0 012.016-.43c.867.323 1.767.547 2.684.668A1.911 1.911 0 0120 15.225z" stroke="#E48227" stroke-width="2" stroke-linecap="round" stroke-linejoin="round"/></svg>