<svg width="77" height="46" fill="none" xmlns="http://www.w3.org/2000/svg"><path fill-rule="evenodd" clip-rule="evenodd" d="M43.632 1.215A2.404 2.404 0 0145.72 0H57.75c1.914 0 3.75.765 5.104 2.127a7.286 7.286 0 012.115 5.136 2.414 2.414 0 01-2.406 2.421 2.414 2.414 0 01-2.407-2.42c0-.643-.253-1.259-.704-1.713a2.399 2.399 0 00-1.702-.709h-7.842l14.733 25.412a2.43 2.43 0 01-.866 3.31 2.398 2.398 0 01-3.291-.87L43.64 3.64a2.434 2.434 0 01-.008-2.426z" fill="#09B24C"/><path fill-rule="evenodd" clip-rule="evenodd" d="M62.563 21.79c-5.316 0-9.626 4.335-9.626 9.684 0 5.348 4.31 9.684 9.626 9.684 5.315 0 9.624-4.336 9.624-9.684 0-5.349-4.309-9.684-9.624-9.684zm-14.438 9.684c0-8.023 6.464-14.527 14.438-14.527C70.535 16.947 77 23.451 77 31.474 77 39.496 70.536 46 62.562 46c-7.973 0-14.437-6.504-14.437-14.526zM14.438 21.79c-5.316 0-9.626 4.335-9.626 9.684 0 5.348 4.31 9.684 9.625 9.684 5.316 0 9.626-4.336 9.626-9.684 0-5.349-4.31-9.684-9.625-9.684zM0 31.474c0-8.023 6.464-14.527 14.438-14.527 7.973 0 14.437 6.504 14.437 14.527C28.875 39.496 22.411 46 14.437 46 6.465 46 0 39.496 0 31.474zM12.031 2.421A2.414 2.414 0 0114.437 0h8.422c.856 0 1.648.457 2.079 1.201l16.844 29.053a2.43 2.43 0 01-.866 3.31 2.398 2.398 0 01-3.291-.87L21.477 4.842h-7.04a2.414 2.414 0 01-2.406-2.42z" fill="#09B24C"/><path fill-rule="evenodd" clip-rule="evenodd" d="M26.54 10.678a2.401 2.401 0 011.944-.994h22.68a2.414 2.414 0 012.405 2.421 2.414 2.414 0 01-2.406 2.421H29.707L16.381 32.901a2.397 2.397 0 01-3.362.528 2.43 2.43 0 01-.525-3.382L26.54 10.678z" fill="#09B24C"/></svg>