<svg width="25" height="26" fill="none" xmlns="http://www.w3.org/2000/svg"><path fill-rule="evenodd" clip-rule="evenodd" d="M12.5 9.31c-2.21 0-4 1.794-4 4.006a4.003 4.003 0 004 4.007c2.21 0 4-1.794 4-4.007a4.003 4.003 0 00-4-4.006zm-6 4.006c0-3.319 2.686-6.01 6-6.01s6 2.691 6 6.01c0 3.32-2.686 6.01-6 6.01s-6-2.69-6-6.01z" fill="#E48227"/><path fill-rule="evenodd" clip-rule="evenodd" d="M7 2.8c-2.761 0-5 2.242-5 5.008v11.018a5.004 5.004 0 005 5.008h11c2.761 0 5-2.243 5-5.008V7.808a5.004 5.004 0 00-5-5.009H7zM0 7.807C0 3.935 3.134.796 7 .796h11c3.866 0 7 3.14 7 7.012v11.018c0 3.872-3.134 7.01-7 7.01H7c-3.866 0-7-3.138-7-7.01V7.808z" fill="#E48227"/></svg>