<svg width="26" height="28" fill="none" xmlns="http://www.w3.org/2000/svg"><path fill-rule="evenodd" clip-rule="evenodd" d="M12 1.794a1 1 0 011-1.001h5a1 1 0 011 1.001c0 1.594.632 3.123 1.757 4.25A5.995 5.995 0 0025 7.804a1 1 0 011 1.002v5.008a1 1 0 01-1 1.002 12.972 12.972 0 01-6-1.467v4.471c0 1.81-.514 3.584-1.484 5.111a9.487 9.487 0 01-14.11 2.193 9.53 9.53 0 01-.342-14.299 9.494 9.494 0 014.76-2.367A.999.999 0 019 9.444v5.209c0 .387-.222.739-.571.905a2.5 2.5 0 00-1.424 2.11 2.507 2.507 0 001.159 2.268 2.497 2.497 0 003.488-.842c.228-.386.348-.825.348-1.274V1.794zm2 1.002V17.82a4.514 4.514 0 01-2.33 3.948 4.494 4.494 0 01-6.176-1.894A4.514 4.514 0 017 14.073v-3.331a7.498 7.498 0 00-4.749 5.155 7.524 7.524 0 002.438 7.69 7.494 7.494 0 0011.14-1.731A7.521 7.521 0 0017 17.82v-6.26a1.002 1.002 0 011.583-.814A10.977 10.977 0 0024 12.767V9.745a7.996 7.996 0 01-4.657-2.285 8.018 8.018 0 01-2.28-4.664H14z" fill="#E48227"/></svg>